%TF.GenerationSoftware,KiCad,Pcbnew,(7.0.0)*%
%TF.CreationDate,2023-03-30T11:39:36-04:00*%
%TF.ProjectId,console,636f6e73-6f6c-4652-9e6b-696361645f70,rev?*%
%TF.SameCoordinates,Original*%
%TF.FileFunction,Copper,L1,Top*%
%TF.FilePolarity,Positive*%
%FSLAX46Y46*%
G04 Gerber Fmt 4.6, Leading zero omitted, Abs format (unit mm)*
G04 Created by KiCad (PCBNEW (7.0.0)) date 2023-03-30 11:39:36*
%MOMM*%
%LPD*%
G01*
G04 APERTURE LIST*
%TA.AperFunction,ComponentPad*%
%ADD10C,2.000000*%
%TD*%
%TA.AperFunction,ComponentPad*%
%ADD11O,1.600000X1.600000*%
%TD*%
%TA.AperFunction,ComponentPad*%
%ADD12C,1.600000*%
%TD*%
%TA.AperFunction,ComponentPad*%
%ADD13O,1.700000X1.700000*%
%TD*%
%TA.AperFunction,ComponentPad*%
%ADD14R,1.700000X1.700000*%
%TD*%
%TA.AperFunction,ComponentPad*%
%ADD15C,1.800000*%
%TD*%
%TA.AperFunction,ComponentPad*%
%ADD16R,1.800000X1.800000*%
%TD*%
%TA.AperFunction,Conductor*%
%ADD17C,0.250000*%
%TD*%
G04 APERTURE END LIST*
D10*
%TO.P,EJECT,4*%
%TO.N,Net-(J2-Pin_3)*%
X168250000Y-64250000D03*
%TO.P,EJECT,3*%
%TO.N,unconnected-(S3-Pad3)*%
X168250000Y-59750000D03*
%TO.P,EJECT,2*%
%TO.N,unconnected-(S3-Pad2)*%
X161750000Y-64250000D03*
%TO.P,EJECT,1*%
%TO.N,Earth*%
X161750000Y-59750000D03*
%TD*%
%TO.P,HOME,1*%
%TO.N,Earth*%
X141750000Y-59750000D03*
%TO.P,HOME,2*%
%TO.N,unconnected-(S2-Pad2)*%
X141750000Y-64250000D03*
%TO.P,HOME,3*%
%TO.N,unconnected-(S2-Pad3)*%
X148250000Y-59750000D03*
%TO.P,HOME,4*%
%TO.N,Net-(J2-Pin_2)*%
X148250000Y-64250000D03*
%TD*%
%TO.P,POWER,1*%
%TO.N,Earth*%
X121750000Y-59750000D03*
%TO.P,POWER,2*%
%TO.N,unconnected-(S1-Pad2)*%
X121750000Y-64250000D03*
%TO.P,POWER,3*%
%TO.N,unconnected-(S1-Pad3)*%
X128250000Y-59750000D03*
%TO.P,POWER,4*%
%TO.N,Net-(J2-Pin_1)*%
X128250000Y-64250000D03*
%TD*%
D11*
%TO.P,R2,2*%
%TO.N,Net-(D1-A)*%
X172079999Y-76999999D03*
D12*
%TO.P,R2,1*%
%TO.N,Net-(J2-Pin_5)*%
X161920000Y-77000000D03*
%TD*%
%TO.P,R1,1*%
%TO.N,Net-(J2-Pin_4)*%
X161920000Y-71000000D03*
D11*
%TO.P,R1,2*%
%TO.N,Net-(D2-A)*%
X172079999Y-70999999D03*
%TD*%
D13*
%TO.P,CONNECTOR,6,Pin_6*%
%TO.N,Earth*%
X177999999Y-76159999D03*
%TO.P,CONNECTOR,5,Pin_5*%
%TO.N,Net-(J2-Pin_5)*%
X177999999Y-73619999D03*
%TO.P,CONNECTOR,4,Pin_4*%
%TO.N,Net-(J2-Pin_4)*%
X177999999Y-71079999D03*
%TO.P,CONNECTOR,3,Pin_3*%
%TO.N,Net-(J2-Pin_3)*%
X177999999Y-68539999D03*
%TO.P,CONNECTOR,2,Pin_2*%
%TO.N,Net-(J2-Pin_2)*%
X177999999Y-65999999D03*
D14*
%TO.P,CONNECTOR,1,Pin_1*%
%TO.N,Net-(J2-Pin_1)*%
X177999999Y-63459999D03*
%TD*%
D15*
%TO.P,GAMESTICK,2,A*%
%TO.N,Net-(D2-A)*%
X156460000Y-76000000D03*
D16*
%TO.P,GAMESTICK,1,K*%
%TO.N,Earth*%
X153919999Y-75999999D03*
%TD*%
D15*
%TO.P,POWER,2,A*%
%TO.N,Net-(D1-A)*%
X136000000Y-76000000D03*
D16*
%TO.P,POWER,1,K*%
%TO.N,Earth*%
X133459999Y-75999999D03*
%TD*%
D17*
%TO.N,Net-(J2-Pin_5)*%
X165300000Y-73620000D02*
X178000000Y-73620000D01*
X161920000Y-77000000D02*
X165300000Y-73620000D01*
%TO.N,Net-(D1-A)*%
X170955000Y-78125000D02*
X172080000Y-77000000D01*
X138125000Y-78125000D02*
X170955000Y-78125000D01*
X136000000Y-76000000D02*
X138125000Y-78125000D01*
%TO.N,Earth*%
X179625000Y-74535000D02*
X178000000Y-76160000D01*
X179625000Y-62735000D02*
X179625000Y-74535000D01*
X178890000Y-62000000D02*
X179625000Y-62735000D01*
X164000000Y-62000000D02*
X178890000Y-62000000D01*
X161750000Y-59750000D02*
X164000000Y-62000000D01*
X134685000Y-74775000D02*
X152695000Y-74775000D01*
X152695000Y-74775000D02*
X153920000Y-76000000D01*
X133460000Y-76000000D02*
X134685000Y-74775000D01*
X133460000Y-71460000D02*
X121750000Y-59750000D01*
X133460000Y-76000000D02*
X133460000Y-71460000D01*
X123075000Y-61075000D02*
X121750000Y-59750000D01*
X140425000Y-61075000D02*
X123075000Y-61075000D01*
X141750000Y-59750000D02*
X140425000Y-61075000D01*
X143075000Y-61075000D02*
X141750000Y-59750000D01*
X160425000Y-61075000D02*
X143075000Y-61075000D01*
X161750000Y-59750000D02*
X160425000Y-61075000D01*
%TO.N,Net-(J2-Pin_2)*%
X178486701Y-69715000D02*
X179175000Y-69026701D01*
X179175000Y-67175000D02*
X178000000Y-66000000D01*
X177513299Y-69715000D02*
X178486701Y-69715000D01*
X179175000Y-69026701D02*
X179175000Y-67175000D01*
X169575000Y-64798833D02*
X172597132Y-64798833D01*
X172597132Y-64798833D02*
X177513299Y-69715000D01*
X149575000Y-65575000D02*
X168798833Y-65575000D01*
X168798833Y-65575000D02*
X169575000Y-64798833D01*
X148250000Y-64250000D02*
X149575000Y-65575000D01*
%TO.N,Net-(D2-A)*%
X165000000Y-71000000D02*
X172080000Y-71000000D01*
X156460000Y-76000000D02*
X158535000Y-73925000D01*
X158535000Y-73925000D02*
X162075000Y-73925000D01*
X162075000Y-73925000D02*
X165000000Y-71000000D01*
%TO.N,Net-(J2-Pin_4)*%
X163045000Y-69875000D02*
X176795000Y-69875000D01*
X176795000Y-69875000D02*
X178000000Y-71080000D01*
X161920000Y-71000000D02*
X163045000Y-69875000D01*
%TO.N,Net-(J2-Pin_3)*%
X173710000Y-64250000D02*
X178000000Y-68540000D01*
X168250000Y-64250000D02*
X173710000Y-64250000D01*
%TO.N,Net-(J2-Pin_1)*%
X177465000Y-62925000D02*
X178000000Y-63460000D01*
X128250000Y-64250000D02*
X129575000Y-62925000D01*
X129575000Y-62925000D02*
X177465000Y-62925000D01*
%TD*%
M02*
